<svg
  xmlns="http://www.w3.org/2000/svg"
  width="320"
  height="52"
  viewBox="0 0 320 52"
  role="img"
  aria-labelledby="title"
>
  <title id="title">pocket patch</title>
  <defs>
    <clipPath id="badge-shape">
      <rect x="0.5" y="9.5" width="70" height="34" rx="10" />
    </clipPath>
  </defs>
  <g transform="translate(0 9)">
    <g clip-path="url(#badge-shape)" transform="translate(0 -9)">
      <path d="M0.5 9.5H35.5V43.5H0.5Z" fill="#354235" />
      <path d="M35.5 9.5H70.5V43.5H35.5Z" fill="#49343c" />
    </g>
    <rect x="0.5" y="0.5" width="70" height="34" rx="10" fill="none" stroke="#3e4451" />
    <path d="M9.5 15h6v-6h5v6h6v5h-6v6h-5v-6h-6Z" fill="#98c379" />
    <path d="M44 15h17v5H44Z" fill="#e06c75" />
  </g>
  <path fill="#abb2bf" d="M94.38 47.8V24.136H98.596V26.176H99.208Q99.786 25.19 101.01 24.425Q102.234 23.66 104.512 23.66Q106.552 23.66 108.286 24.663Q110.02 25.666 111.074 27.604Q112.128 29.542 112.128 32.296V32.84Q112.128 35.594 111.074 37.532Q110.02 39.47 108.286 40.473Q106.552 41.476 104.512 41.476Q102.982 41.476 101.945 41.119Q100.908 40.762 100.279 40.201Q99.65 39.64 99.276 39.062H98.664V47.8ZM103.22 37.736Q105.226 37.736 106.535 36.461Q107.844 35.186 107.844 32.738V32.398Q107.844 29.95 106.518 28.675Q105.192 27.4 103.22 27.4Q101.248 27.4 99.922 28.675Q98.596 29.95 98.596 32.398V32.738Q98.596 35.186 99.922 36.461Q101.248 37.736 103.22 37.736ZM124.096 41.476Q121.58 41.476 119.574 40.456Q117.568 39.436 116.412 37.498Q115.256 35.56 115.256 32.84V32.296Q115.256 29.576 116.412 27.638Q117.568 25.7 119.574 24.68Q121.58 23.66 124.096 23.66Q126.612 23.66 128.618 24.68Q130.624 25.7 131.78 27.638Q132.936 29.576 132.936 32.296V32.84Q132.936 35.56 131.78 37.498Q130.624 39.436 128.618 40.456Q126.612 41.476 124.096 41.476ZM124.096 37.668Q126.068 37.668 127.36 36.393Q128.652 35.118 128.652 32.738V32.398Q128.652 30.018 127.377 28.743Q126.102 27.468 124.096 27.468Q122.124 27.468 120.832 28.743Q119.54 30.018 119.54 32.398V32.738Q119.54 35.118 120.832 36.393Q122.124 37.668 124.096 37.668ZM144.802 41.476Q142.354 41.476 140.365 40.456Q138.376 39.436 137.22 37.498Q136.064 35.56 136.064 32.806V32.33Q136.064 29.576 137.22 27.638Q138.376 25.7 140.365 24.68Q142.354 23.66 144.802 23.66Q147.216 23.66 148.95 24.51Q150.684 25.36 151.755 26.839Q152.826 28.318 153.166 30.188L149.018 31.072Q148.882 30.052 148.406 29.236Q147.93 28.42 147.063 27.944Q146.196 27.468 144.904 27.468Q143.612 27.468 142.575 28.029Q141.538 28.59 140.943 29.695Q140.348 30.8 140.348 32.398V32.738Q140.348 34.336 140.943 35.441Q141.538 36.546 142.575 37.107Q143.612 37.668 144.904 37.668Q146.842 37.668 147.845 36.665Q148.848 35.662 149.12 34.03L153.268 35.016Q152.826 36.818 151.755 38.297Q150.684 39.776 148.95 40.626Q147.216 41.476 144.802 41.476ZM156.804 41V17.2H161.088V30.358H161.7L167.276 24.136H172.852L165.066 32.296L173.124 41H167.616L161.7 34.302H161.088V41ZM182.644 41.476Q180.128 41.476 178.207 40.405Q176.286 39.334 175.215 37.379Q174.144 35.424 174.144 32.772V32.364Q174.144 29.712 175.198 27.757Q176.252 25.802 178.156 24.731Q180.06 23.66 182.576 23.66Q185.058 23.66 186.894 24.765Q188.73 25.87 189.75 27.825Q190.77 29.78 190.77 32.364V33.826H178.496Q178.564 35.56 179.788 36.648Q181.012 37.736 182.78 37.736Q184.582 37.736 185.432 36.954Q186.282 36.172 186.724 35.22L190.226 37.056Q189.75 37.94 188.849 38.977Q187.948 40.014 186.452 40.745Q184.956 41.476 182.644 41.476ZM178.53 30.63H186.418Q186.282 29.168 185.245 28.284Q184.208 27.4 182.542 27.4Q180.808 27.4 179.788 28.284Q178.768 29.168 178.53 30.63ZM200.494 41Q198.828 41 197.791 39.963Q196.754 38.926 196.754 37.192V27.672H192.538V24.136H196.754V18.9H201.038V24.136H205.662V27.672H201.038V36.444Q201.038 37.464 201.99 37.464H205.254V41Z" />
  <path fill="#5c6370" d="M209.402 49.364V13.596H213.686V49.364Z" />
  <path fill="#61afef" d="M218.31 47.8V24.136H222.526V26.176H223.138Q223.716 25.19 224.94 24.425Q226.164 23.66 228.442 23.66Q230.482 23.66 232.216 24.663Q233.95 25.666 235.004 27.604Q236.058 29.542 236.058 32.296V32.84Q236.058 35.594 235.004 37.532Q233.95 39.47 232.216 40.473Q230.482 41.476 228.442 41.476Q226.912 41.476 225.875 41.119Q224.838 40.762 224.209 40.201Q223.58 39.64 223.206 39.062H222.594V47.8ZM227.15 37.736Q229.156 37.736 230.465 36.461Q231.774 35.186 231.774 32.738V32.398Q231.774 29.95 230.448 28.675Q229.122 27.4 227.15 27.4Q225.178 27.4 223.852 28.675Q222.526 29.95 222.526 32.398V32.738Q222.526 35.186 223.852 36.461Q225.178 37.736 227.15 37.736ZM245.238 41.476Q243.436 41.476 242.008 40.847Q240.58 40.218 239.747 39.011Q238.914 37.804 238.914 36.07Q238.914 34.336 239.747 33.163Q240.58 31.99 242.059 31.395Q243.538 30.8 245.442 30.8H250.066V29.848Q250.066 28.658 249.318 27.893Q248.57 27.128 246.938 27.128Q245.34 27.128 244.558 27.859Q243.776 28.59 243.538 29.746L239.594 28.42Q240.002 27.128 240.903 26.057Q241.804 24.986 243.317 24.323Q244.83 23.66 247.006 23.66Q250.338 23.66 252.276 25.326Q254.214 26.992 254.214 30.154V36.444Q254.214 37.464 255.166 37.464H256.526V41H253.67Q252.412 41 251.596 40.388Q250.78 39.776 250.78 38.756V38.722H250.134Q249.998 39.13 249.522 39.793Q249.046 40.456 248.026 40.966Q247.006 41.476 245.238 41.476ZM245.986 38.008Q247.788 38.008 248.927 37.005Q250.066 36.002 250.066 34.336V33.996H245.748Q244.558 33.996 243.878 34.506Q243.198 35.016 243.198 35.934Q243.198 36.852 243.912 37.43Q244.626 38.008 245.986 38.008ZM264.89 41Q263.224 41 262.187 39.963Q261.15 38.926 261.15 37.192V27.672H256.934V24.136H261.15V18.9H265.434V24.136H270.058V27.672H265.434V36.444Q265.434 37.464 266.386 37.464H269.65V41ZM281.244 41.476Q278.796 41.476 276.807 40.456Q274.818 39.436 273.662 37.498Q272.506 35.56 272.506 32.806V32.33Q272.506 29.576 273.662 27.638Q274.818 25.7 276.807 24.68Q278.796 23.66 281.244 23.66Q283.658 23.66 285.392 24.51Q287.126 25.36 288.197 26.839Q289.268 28.318 289.608 30.188L285.46 31.072Q285.324 30.052 284.848 29.236Q284.372 28.42 283.505 27.944Q282.638 27.468 281.346 27.468Q280.054 27.468 279.017 28.029Q277.98 28.59 277.385 29.695Q276.79 30.8 276.79 32.398V32.738Q276.79 34.336 277.385 35.441Q277.98 36.546 279.017 37.107Q280.054 37.668 281.346 37.668Q283.284 37.668 284.287 36.665Q285.29 35.662 285.562 34.03L289.71 35.016Q289.268 36.818 288.197 38.297Q287.126 39.776 285.392 40.626Q283.658 41.476 281.244 41.476ZM293.246 41V17.2H297.53V26.21H298.142Q298.414 25.666 298.992 25.122Q299.57 24.578 300.539 24.221Q301.508 23.864 303.004 23.864Q304.976 23.864 306.455 24.765Q307.934 25.666 308.75 27.247Q309.566 28.828 309.566 30.936V41H305.282V31.276Q305.282 29.372 304.347 28.42Q303.412 27.468 301.678 27.468Q299.706 27.468 298.618 28.777Q297.53 30.086 297.53 32.432V41Z" />
</svg>
