<svg
  xmlns="http://www.w3.org/2000/svg"
  width="224"
  height="40"
  viewBox="0 0 224 40"
  role="img"
  aria-labelledby="title"
>
  <title id="title">pocket patch</title>
  <rect width="224" height="40" fill="none" />
  <g transform="translate(0 8)">
    <rect
      x="0.5"
      y="0.5"
      width="38"
      height="23"
      rx="7"
      fill="#282c34"
      stroke="#3e4451"
    />
    <path d="M7 1h12.5v22H7a6 6 0 0 1-6-6V7a6 6 0 0 1 6-6Z" fill="#354235" />
    <path d="M19.5 1H32a6 6 0 0 1 6 6v10a6 6 0 0 1-6 6H19.5Z" fill="#49343c" />
    <text
      x="10.6"
      y="16.3"
      fill="#98c379"
      font-family="JetBrains Mono, ui-monospace, SFMono-Regular, Menlo, Consolas, monospace"
      font-size="15"
      font-weight="800"
    >+</text>
    <text
      x="25.1"
      y="15.7"
      fill="#e06c75"
      font-family="JetBrains Mono, ui-monospace, SFMono-Regular, Menlo, Consolas, monospace"
      font-size="15"
      font-weight="800"
    >-</text>
  </g>
  <g
    transform="translate(50 9)"
    font-family="Space Grotesk, ui-sans-serif, system-ui, -apple-system, BlinkMacSystemFont, Segoe UI, sans-serif"
    font-size="22"
    font-weight="800"
  >
    <text x="0" y="21" fill="#abb2bf">pocket</text>
    <text x="74" y="21" fill="#5c6370">|</text>
    <text x="84" y="21" fill="#61afef">patch</text>
  </g>
</svg>
